<?xml version="1.0" standalone="no"?>
<!DOCTYPE svg PUBLIC "-//W3C//DTD SVG 20010904//EN"
 "http://www.w3.org/TR/2001/REC-SVG-20010904/DTD/svg10.dtd">
<svg version="1.0" xmlns="http://www.w3.org/2000/svg"
 width="1191.000000pt" height="1191.000000pt" viewBox="0 0 1191.000000 1191.000000"
 preserveAspectRatio="xMidYMid meet">
<metadata>
Created by potrace 1.11, written by Peter Selinger 2001-2013
</metadata>
<g transform="translate(0.000000,1191.000000) scale(0.100000,-0.100000)"
fill="#000000" stroke="none">
<path d="M2730 11775 c-131 -22 -269 -79 -352 -146 -20 -16 -43 -29 -51 -29
-14 0 -84 -76 -120 -129 -60 -89 -97 -229 -97 -368 0 -131 20 -263 72 -478 22
-93 49 -208 60 -255 l19 -85 -23 -15 c-12 -8 -39 -30 -59 -48 -40 -35 -44 -34
-71 28 -23 52 -58 158 -58 176 0 9 -5 12 -11 8 -9 -5 -10 -53 -6 -170 l6 -163
-71 -68 c-112 -106 -269 -270 -349 -363 -130 -151 -157 -183 -218 -265 -33
-44 -64 -84 -69 -90 -4 -5 -23 -32 -42 -60 -18 -27 -37 -52 -40 -55 -4 -3 -9
-9 -11 -15 -2 -5 -38 -62 -80 -125 -168 -256 -374 -651 -433 -834 -14 -41 -31
-85 -40 -98 -38 -60 -146 -387 -205 -623 -58 -234 -110 -519 -133 -730 -18
-164 -18 -936 0 -1100 35 -319 114 -700 207 -999 36 -114 117 -346 135 -381 5
-11 23 -56 40 -100 41 -106 215 -455 285 -574 30 -51 55 -95 55 -98 0 -2 11
-19 25 -37 14 -18 25 -36 25 -39 0 -6 42 -72 58 -92 5 -6 31 -44 57 -85 46
-71 138 -197 195 -266 14 -17 32 -40 40 -50 55 -71 150 -182 205 -244 93 -103
343 -347 429 -420 47 -40 86 -78 86 -86 0 -8 8 -14 18 -14 11 0 27 -10 38 -21
10 -12 35 -32 54 -44 65 -42 103 -82 122 -131 67 -170 66 -162 50 -249 -17
-98 -12 -158 22 -253 50 -143 152 -255 352 -384 170 -110 241 -139 449 -187
57 -13 340 -56 432 -65 35 -4 95 -21 135 -37 203 -85 289 -104 383 -83 33 7
132 25 220 40 88 14 223 37 300 50 215 36 366 47 568 41 l182 -5 65 -35 c36
-20 92 -50 125 -68 33 -17 67 -37 75 -44 8 -7 42 -23 75 -35 51 -20 80 -23
190 -24 106 -1 136 2 160 16 17 10 59 27 95 39 66 21 161 60 260 106 113 53
276 107 284 95 2 -4 6 -23 10 -43 3 -20 14 -45 24 -55 23 -26 108 -84 121 -84
7 0 22 -6 34 -14 24 -15 104 -35 177 -44 92 -11 336 -7 352 5 8 7 68 28 134
48 65 19 164 49 219 66 105 33 204 41 241 21 11 -6 55 -14 98 -18 80 -7 127 0
255 37 35 11 93 22 130 25 56 5 70 4 84 -11 21 -20 135 -27 158 -9 8 6 25 15
39 19 14 4 41 22 60 40 71 68 191 111 332 119 l78 4 15 -33 c9 -17 29 -44 45
-60 24 -23 33 -26 62 -19 18 4 39 7 46 5 16 -3 158 35 192 51 66 32 108 69
129 113 16 33 31 50 55 60 37 16 41 23 51 88 8 52 32 70 86 65 28 -2 37 -10
52 -40 16 -32 17 -43 7 -73 -17 -52 -72 -74 -100 -40 -20 25 -40 17 -56 -21
-18 -43 -8 -84 31 -126 35 -38 64 -43 132 -23 115 33 200 97 239 180 24 51 32
129 14 140 -6 3 -10 -4 -10 -17 0 -40 -55 -141 -109 -200 -109 -120 -271 -127
-271 -13 0 35 1 35 43 35 73 0 117 50 117 132 0 55 -18 81 -69 98 -34 11 -46
11 -77 -1 -40 -15 -39 -14 -86 -114 -47 -100 -163 -216 -234 -233 -27 -7 -62
-19 -77 -27 -37 -19 -140 -23 -160 -7 -23 19 -30 64 -18 110 15 53 76 97 122
88 18 -3 38 -11 45 -16 17 -15 6 -45 -22 -60 -26 -14 -30 -25 -14 -35 16 -10
70 51 70 79 0 42 -76 72 -143 56 -50 -11 -85 -44 -97 -92 l-11 -38 -87 6
c-139 10 -260 -32 -335 -115 -14 -17 -44 -35 -67 -42 -22 -7 -40 -16 -40 -21
0 -13 -83 -9 -136 7 -27 8 -85 15 -129 15 -65 0 -90 -5 -134 -25 -45 -21 -74
-26 -161 -30 -93 -4 -112 -2 -146 16 -34 17 -50 19 -119 13 -44 -3 -106 -15
-139 -25 -32 -11 -63 -19 -68 -19 -5 0 -41 -14 -80 -31 -102 -45 -271 -80
-397 -83 -58 -1 -115 1 -126 5 -11 4 -62 15 -114 24 -98 18 -140 39 -199 97
-27 28 -32 39 -30 73 l3 40 75 17 c112 24 211 23 244 -3 74 -58 -14 -158 -92
-103 -29 20 -28 3 3 -30 56 -61 155 -8 155 84 0 66 -62 104 -170 103 -155 0
-411 -86 -784 -263 -77 -36 -138 -59 -149 -56 -11 3 -56 1 -100 -4 -53 -6 -85
-6 -93 1 -7 5 -30 7 -53 3 -24 -4 -41 -3 -41 3 0 5 -24 20 -52 32 -29 13 -60
27 -68 32 -8 5 -37 21 -65 35 -27 14 -57 32 -65 39 -30 27 -167 66 -265 76
-100 11 -254 6 -375 -12 -36 -5 -117 -14 -180 -19 -78 -6 -175 -24 -300 -55
-224 -56 -359 -68 -455 -41 -33 10 -70 24 -82 32 -59 37 -181 71 -308 84 -44
5 -129 20 -190 34 -60 14 -150 30 -200 36 -112 14 -252 68 -379 148 -112 71
-138 92 -247 205 -68 69 -88 96 -93 125 -3 20 -12 49 -19 63 -52 97 -59 227
-19 329 12 30 29 86 36 123 8 38 22 77 31 87 32 36 110 53 199 46 95 -8 116
-20 145 -79 23 -48 26 -82 11 -123 l-11 -27 -16 24 c-23 33 -29 36 -77 37 -78
2 -136 -58 -136 -142 0 -64 31 -128 79 -164 20 -15 42 -35 49 -45 16 -21 72
-51 80 -42 4 3 0 10 -8 15 -101 58 -179 184 -163 261 11 56 83 101 125 78 22
-12 24 -57 3 -65 -23 -9 -7 -24 26 -24 45 0 65 15 83 60 31 78 15 182 -35 233
-25 25 -35 28 -72 25 -23 -3 -60 2 -82 9 -68 24 -164 1 -217 -52 -26 -26 -50
-86 -63 -157 -4 -21 -11 -38 -15 -38 -4 0 -13 26 -20 57 -7 32 -18 71 -25 88
-8 16 -19 44 -25 62 -17 46 -75 99 -134 124 l-52 21 37 37 c66 65 78 195 29
296 -14 28 -25 58 -26 67 -1 9 -18 40 -38 68 -38 53 -55 103 -39 113 6 4 16
-4 23 -17 33 -63 174 -93 233 -50 15 10 25 23 24 28 -2 6 5 18 15 28 14 14 18
34 18 88 0 40 -4 70 -10 70 -5 0 -10 24 -10 54 0 42 8 69 32 117 57 108 161
161 382 194 68 10 103 11 112 4 48 -40 127 -29 285 41 133 59 165 65 217 45
38 -16 67 -56 87 -123 8 -27 29 -24 33 5 3 18 10 20 62 19 71 -1 104 19 138
85 17 32 22 54 17 82 -13 86 42 12 90 -122 24 -69 37 -90 62 -106 18 -11 31
-24 29 -30 -5 -20 -39 -16 -96 9 -69 31 -99 33 -128 6 -39 -37 -21 -125 33
-168 23 -19 41 -22 109 -22 69 0 87 -4 121 -25 47 -28 110 -33 143 -9 28 19
30 2 3 -41 -19 -33 -51 -49 -176 -90 -44 -14 -88 -28 -97 -31 -13 -5 -18 -1
-18 11 0 30 -62 82 -108 90 -55 9 -128 -25 -155 -72 -24 -42 -32 -127 -18
-180 24 -88 161 -214 240 -220 40 -3 77 -34 68 -57 -8 -19 -43 -21 -54 -3 -4
6 -51 41 -103 77 -84 57 -101 65 -152 68 -83 6 -143 -5 -178 -34 -26 -22 -30
-32 -30 -76 0 -47 -4 -55 -50 -104 -56 -60 -60 -77 -27 -142 30 -62 84 -112
156 -147 l60 -28 93 28 c120 37 202 46 245 26 43 -19 53 -52 38 -123 -8 -39
-8 -61 -1 -68 5 -5 6 -10 1 -10 -5 0 2 -11 15 -25 23 -25 23 -25 2 -25 -25 0
-52 35 -52 67 0 37 -44 75 -94 80 -55 7 -102 -9 -159 -52 -62 -47 -88 -105
-90 -199 -2 -69 0 -76 29 -112 17 -22 40 -43 50 -49 11 -5 29 -20 42 -33 12
-12 28 -22 36 -22 8 0 16 -4 18 -8 7 -17 141 -93 200 -113 130 -44 273 -8 383
96 97 92 141 114 199 99 l26 -6 -30 -36 c-34 -42 -40 -99 -16 -156 11 -27 25
-38 69 -54 30 -12 92 -42 138 -67 141 -78 195 -98 286 -103 80 -4 83 -4 165
38 46 23 100 59 121 79 79 74 112 166 87 242 -16 48 -6 64 33 50 28 -11 57
-57 57 -91 0 -27 24 -36 57 -21 36 16 57 0 149 -114 85 -106 108 -120 286
-180 135 -44 205 -52 288 -31 36 9 76 24 90 33 103 68 315 148 418 158 61 7
77 4 116 -14 29 -14 50 -33 58 -52 22 -51 64 -56 383 -50 132 2 186 -10 280
-66 123 -72 230 -82 376 -37 129 39 153 43 311 53 81 5 174 17 206 26 60 17
61 17 102 -6 32 -18 38 -25 24 -29 -16 -6 -16 -7 2 -14 20 -8 112 -26 153 -29
13 -1 26 4 29 12 3 10 -2 12 -24 8 -20 -3 -48 5 -96 28 -38 19 -68 32 -68 29
0 -2 -12 9 -27 26 l-28 31 -65 -16 c-53 -12 -309 -45 -370 -47 -38 -1 -171
-31 -224 -50 -101 -35 -210 -16 -305 55 -79 58 -161 73 -303 56 -155 -18 -158
-3 -11 50 152 54 254 94 378 148 104 46 386 186 442 219 17 10 77 46 133 79
57 33 117 69 134 80 47 30 150 99 156 105 19 19 89 60 103 60 10 0 35 -9 55
-19 44 -22 54 -43 112 -231 48 -152 75 -207 161 -326 65 -89 130 -154 154
-154 30 0 37 44 47 285 9 258 6 316 -33 490 -12 55 -31 147 -43 205 l-22 105
165 165 c129 129 341 362 414 455 171 220 342 469 417 605 16 30 50 91 75 135
79 140 210 414 274 570 64 160 103 275 186 550 30 98 92 366 105 449 5 34 18
119 29 189 81 505 79 1034 -3 1567 -28 178 -37 225 -67 355 -85 362 -208 727
-339 1010 -67 144 -83 176 -90 180 -4 3 -10 15 -13 27 -6 23 -117 226 -163
300 -13 21 -24 40 -24 43 0 4 -11 21 -25 39 -14 18 -25 36 -25 39 0 10 -199
301 -247 362 -251 316 -343 418 -627 690 -31 30 -105 94 -166 145 -29 25 -67
57 -83 73 -17 15 -33 27 -36 27 -3 0 -17 10 -31 23 -27 25 -170 132 -247 185
-104 71 -293 192 -301 192 -4 0 -24 12 -45 26 -76 51 -432 231 -572 289 -50
21 -110 46 -135 57 -151 68 -590 202 -830 253 -151 32 -518 88 -655 100 -163
13 -567 17 -763 6 -244 -14 -616 -66 -822 -115 -36 -9 -71 -16 -77 -16 -7 0
-25 19 -40 43 -123 191 -245 277 -394 277 -35 0 -81 9 -116 22 -32 11 -71 24
-88 29 -16 4 -83 21 -149 38 -249 66 -614 91 -816 56z m525 -41 c66 -8 216
-33 333 -55 l213 -41 57 -90 c103 -160 437 -648 674 -983 50 -71 108 -153 127
-181 20 -28 72 -102 116 -164 534 -757 1121 -1637 1103 -1655 -3 -3 -31 4 -63
15 -71 24 -82 19 -23 -11 53 -27 113 -68 154 -106 35 -31 94 -120 94 -140 0
-7 -34 10 -77 38 -43 28 -98 60 -123 71 -195 89 -193 89 -474 184 -227 78
-218 59 14 -28 52 -20 149 -55 215 -79 240 -85 376 -160 471 -260 64 -68 103
-129 193 -304 71 -137 127 -236 241 -425 91 -150 347 -677 335 -688 -3 -3 -15
3 -28 14 -48 43 -116 56 -153 30 -16 -12 -19 -27 -19 -83 0 -79 23 -120 82
-148 59 -28 119 3 143 74 7 23 16 41 19 41 4 0 15 -17 26 -37 11 -21 46 -85
79 -143 183 -329 387 -780 652 -1442 120 -300 123 -308 126 -395 l3 -88 -55 2
c-30 1 -77 5 -104 9 -38 5 -51 3 -57 -9 -8 -13 -26 -8 -121 33 -62 26 -230 91
-373 144 -352 131 -601 230 -712 281 -51 24 -93 42 -93 40 0 -7 207 -114 296
-153 89 -39 292 -119 554 -217 373 -140 527 -209 702 -313 64 -38 80 -52 89
-81 7 -20 44 -119 84 -221 106 -268 185 -524 185 -594 l0 -25 -68 34 c-148 73
-245 116 -250 110 -3 -3 -1 -5 5 -5 6 0 28 -12 49 -26 21 -15 72 -44 114 -66
121 -64 158 -91 174 -123 8 -16 33 -95 56 -175 23 -80 59 -205 81 -278 44
-151 48 -186 22 -178 -10 3 -79 21 -153 40 -478 121 -633 163 -965 258 -77 22
-149 43 -160 45 -28 7 -458 141 -525 163 -258 88 -534 192 -605 229 -27 14
-86 47 -129 73 -56 34 -82 45 -87 36 -5 -8 -15 -6 -36 7 -44 29 -144 85 -151
85 -4 0 11 -12 33 -25 45 -28 40 -33 -8 -9 -81 42 -304 175 -417 250 -69 46
-139 89 -155 96 -57 25 -177 102 -188 120 -7 11 -37 38 -67 61 -77 58 -150
127 -150 143 0 7 -12 22 -27 34 -56 44 -203 212 -232 266 -62 114 -96 262 -89
381 7 110 28 149 97 179 29 13 69 24 88 24 94 0 195 -106 243 -255 16 -50 68
-146 88 -162 27 -22 4 -26 -25 -5 -26 19 -72 86 -154 226 -38 66 -103 134
-133 141 -34 8 -78 -9 -100 -39 -16 -21 -22 -46 -25 -112 -4 -114 26 -238 82
-333 51 -85 336 -380 447 -463 73 -54 222 -148 235 -148 4 0 38 -16 76 -35 39
-19 67 -30 64 -24 -4 6 -95 69 -203 141 -250 166 -320 219 -419 316 -137 135
-204 245 -243 397 -32 127 -22 204 34 240 55 36 119 -7 193 -131 70 -118 130
-192 172 -214 41 -20 103 -25 151 -10 23 6 22 8 -15 15 -103 20 -146 66 -209
223 -54 134 -82 190 -110 220 -59 66 -174 83 -253 37 -70 -42 -96 -104 -101
-241 -4 -118 14 -216 58 -307 11 -22 20 -45 20 -49 0 -5 -37 19 -82 54 -46 34
-87 66 -93 70 -5 4 -33 27 -61 50 -28 24 -75 63 -105 88 -165 138 -350 324
-377 380 -11 25 -37 104 -56 175 -19 72 -47 168 -62 215 -39 124 -84 282 -84
294 0 6 12 -4 26 -22 43 -55 69 -63 149 -47 39 7 106 30 150 50 166 77 202 87
326 93 84 3 164 -1 299 -18 107 -13 206 -20 237 -16 79 8 144 27 140 40 -2 6
-30 14 -63 18 -32 3 -93 15 -134 26 -258 69 -459 54 -791 -59 -59 -20 -96 -23
-148 -13 -30 6 -44 22 -113 128 -4 6 -10 32 -13 59 -4 30 -11 47 -20 47 -21 0
-52 -45 -60 -87 -4 -21 -9 -42 -13 -47 -3 -6 -56 192 -117 440 -147 589 -230
895 -340 1249 -43 138 -164 506 -180 548 -14 35 14 14 120 -90 137 -133 214
-202 141 -125 -28 28 -47 54 -45 57 3 3 42 -22 87 -55 110 -80 372 -259 452
-307 134 -81 133 -67 -2 29 -57 40 -112 81 -124 93 -11 11 -99 79 -195 152
-309 234 -461 389 -576 588 -62 107 -65 131 -9 70 25 -27 45 -53 46 -57 0 -5
7 -16 15 -25 9 -10 29 -35 47 -56 17 -21 38 -37 47 -35 9 2 21 -6 26 -17 10
-19 133 -100 141 -92 2 2 -23 25 -56 51 -34 26 -64 54 -67 64 -3 9 -44 56 -90
104 -124 130 -217 282 -274 447 -11 30 -19 55 -19 57 0 1 33 -30 73 -68 39
-39 97 -92 127 -118 30 -27 69 -61 85 -75 59 -52 252 -192 380 -276 192 -127
414 -258 745 -439 63 -35 130 -72 148 -82 17 -11 32 -17 32 -14 0 4 -97 63
-380 231 -317 188 -814 505 -792 505 7 0 36 -13 65 -29 29 -15 81 -44 117 -63
64 -35 103 -57 178 -100 154 -89 352 -191 358 -185 9 9 -176 123 -403 248
-287 159 -433 260 -552 381 -70 71 -177 216 -167 226 3 2 42 -30 88 -73 69
-64 248 -206 334 -265 12 -8 98 -66 190 -129 331 -224 439 -300 579 -410 33
-26 101 -68 150 -92 101 -51 178 -93 410 -229 234 -136 510 -270 556 -270 5 0
-57 34 -138 76 -82 43 -227 122 -323 177 -96 55 -195 112 -220 126 -25 13 -47
28 -50 32 -3 3 -23 16 -45 28 -81 43 -513 324 -690 448 -122 85 -381 269 -390
275 -5 4 -59 45 -120 89 -283 210 -441 384 -551 609 -55 113 -83 198 -94 284
-10 78 -6 96 11 47 36 -102 126 -258 218 -376 131 -168 308 -321 573 -495 120
-79 186 -111 98 -47 -97 68 -249 196 -345 289 -87 83 -103 104 -118 151 -9 29
-17 56 -17 58 0 2 53 -48 118 -111 109 -108 236 -219 342 -300 25 -19 50 -38
55 -43 102 -83 476 -311 475 -290 -1 4 -24 24 -51 43 -28 19 -78 55 -112 80
-34 26 -100 73 -147 105 -95 66 -326 237 -380 281 -136 112 -306 302 -383 429
-31 51 -78 150 -65 135 3 -3 31 -36 63 -75 56 -68 379 -395 460 -465 369 -323
845 -636 1354 -891 175 -87 353 -170 358 -166 2 2 -117 69 -264 147 -148 79
-313 169 -368 200 -55 32 -120 68 -145 82 -175 96 -504 310 -651 423 -146 112
-270 222 -376 334 -59 63 -176 185 -259 271 -155 161 -202 230 -218 323 -8 44
-1 46 39 9 17 -15 66 -58 110 -96 44 -38 152 -137 239 -220 88 -83 174 -164
190 -179 148 -138 244 -225 316 -287 47 -40 96 -82 110 -94 49 -43 187 -144
280 -206 52 -35 107 -71 122 -81 59 -40 362 -182 389 -182 15 0 26 -4 23 -8
-2 -4 1 -11 7 -15 8 -4 9 -3 5 4 -4 7 -2 12 6 12 7 0 -50 35 -127 78 -77 42
-189 111 -250 151 -104 70 -316 228 -360 268 -11 10 -41 35 -67 56 -26 21 -53
43 -60 50 -7 7 -47 41 -88 77 -41 36 -80 70 -86 75 -6 6 -58 53 -115 105 -57
52 -133 122 -169 156 -98 91 -271 244 -392 346 -15 13 -57 46 -92 73 -52 40
-66 58 -75 90 -5 22 -14 57 -19 78 -6 20 -7 37 -3 37 3 0 92 -84 196 -187 329
-322 594 -551 894 -774 80 -60 151 -112 156 -116 32 -25 99 -64 160 -93 39
-19 81 -41 95 -51 105 -69 570 -300 603 -299 7 1 -51 33 -128 73 -77 40 -187
101 -245 136 -216 131 -417 256 -462 288 -27 18 -72 49 -100 69 -123 85 -372
283 -478 379 -110 99 -183 167 -285 267 -60 58 -147 136 -193 173 -212 170
-256 232 -292 405 -23 113 -26 298 -6 410 25 136 105 310 143 310 9 0 35 17
57 38 95 88 262 152 441 171 109 11 307 5 470 -15z m719 -155 c148 -55 287
-184 403 -374 133 -218 405 -582 566 -760 26 -28 134 -172 273 -365 65 -91
252 -343 414 -560 264 -351 426 -571 470 -637 38 -56 234 -329 240 -333 3 -3
17 -21 30 -40 13 -19 27 -37 30 -40 3 -3 30 -43 59 -90 30 -47 105 -161 167
-255 125 -190 340 -533 401 -640 22 -38 75 -131 118 -205 43 -74 92 -160 108
-190 16 -30 44 -80 62 -110 18 -30 50 -89 72 -130 22 -41 97 -178 165 -305
214 -394 248 -462 248 -489 0 -14 -13 -68 -30 -119 -41 -129 -39 -151 19 -271
28 -56 77 -175 111 -266 117 -319 145 -391 201 -507 l48 -101 65 -22 c36 -12
76 -30 90 -41 13 -10 28 -19 34 -19 11 0 40 -63 112 -245 107 -267 201 -575
216 -707 6 -54 5 -58 -14 -58 -58 0 -114 -52 -140 -129 -44 -125 -37 -445 14
-682 15 -68 28 -142 30 -164 6 -76 131 -540 163 -609 57 -118 117 -168 220
-182 l51 -7 0 33 0 33 -25 -23 -25 -23 0 22 c0 12 7 38 15 58 18 42 18 43 6
43 -5 0 -18 -21 -29 -47 -16 -38 -21 -43 -21 -23 0 14 8 45 19 69 24 51 26 68
6 52 -7 -6 -23 -39 -36 -73 -14 -38 -25 -56 -30 -48 -10 17 2 63 39 148 18 41
31 76 28 78 -8 9 -36 -34 -59 -90 -28 -70 -51 -87 -37 -29 4 22 22 72 39 113
18 41 34 84 38 95 14 48 -30 -17 -59 -87 -28 -66 -49 -103 -49 -85 0 3 18 57
40 118 22 62 38 114 36 117 -9 8 -43 -58 -61 -118 -10 -33 -22 -60 -27 -60
-15 0 -8 30 32 126 42 101 46 114 31 114 -5 0 -27 -46 -50 -102 -71 -176 -80
-162 -15 22 39 110 38 106 20 90 -8 -6 -30 -53 -48 -103 -26 -71 -34 -86 -36
-65 -2 16 15 82 38 149 23 66 39 123 37 126 -9 8 -42 -65 -67 -144 -24 -76
-40 -94 -40 -43 0 25 14 67 65 205 l8 20 -20 -20 c-12 -11 -31 -51 -43 -88
-12 -38 -24 -66 -27 -63 -6 6 33 156 52 204 18 43 18 45 1 39 -13 -5 -13 -1 0
35 8 22 14 48 14 57 -1 24 -29 -32 -62 -124 -31 -83 -55 -124 -42 -70 6 25 39
130 69 220 6 17 4 17 -14 -4 -12 -13 -31 -55 -42 -93 -12 -38 -24 -67 -26 -64
-8 8 17 104 45 174 13 35 22 66 18 69 -6 6 -56 -99 -56 -120 -1 -7 -8 -23 -16
-37 -31 -51 -5 60 37 159 22 51 38 95 35 98 -6 7 -52 -75 -67 -122 -7 -22 -14
-33 -16 -25 -3 13 26 109 52 173 4 9 3 17 -2 17 -11 0 -35 -52 -57 -125 l-16
-50 6 45 c3 24 16 76 29 115 14 40 25 78 25 86 -1 25 -24 -21 -52 -106 -26
-75 -27 -77 -22 -31 3 27 19 86 34 130 16 44 27 82 25 84 -2 3 -13 -11 -24
-29 -27 -44 -27 -20 0 32 14 28 16 40 7 37 -7 -3 -26 -34 -41 -69 -28 -64 -28
-64 -21 -20 6 39 24 101 50 166 7 18 6 18 -9 7 -9 -8 -24 -37 -34 -65 -15 -43
-18 -48 -21 -26 -2 14 8 55 21 92 24 65 22 91 -2 45 -10 -20 -11 -16 -6 26 5
52 33 118 51 123 6 2 33 -56 61 -129 68 -178 74 -197 128 -383 57 -196 67
-221 59 -140 -15 156 -74 365 -186 657 -33 86 -58 164 -55 172 4 9 15 16 26
16 14 0 21 -9 25 -35 6 -32 47 -179 180 -645 87 -304 147 -532 145 -554 0 -6
-17 37 -38 95 -21 58 -46 119 -55 135 l-17 29 7 -45 c3 -25 27 -133 54 -240
26 -107 53 -222 59 -255 21 -111 25 -115 31 -30 l5 80 18 -114 19 -115 -23
-17 -22 -17 21 -6 c12 -4 26 -4 32 -1 6 3 10 -4 10 -17 0 -13 7 -86 15 -163 8
-77 15 -177 15 -222 0 -81 -16 -183 -28 -183 -22 0 -112 178 -187 370 -74 188
-103 250 -116 250 -5 0 -22 11 -37 25 -15 14 -56 47 -92 73 l-64 47 -42 205
c-63 310 -98 469 -159 713 -88 350 -140 529 -251 863 -30 89 -54 164 -54 168
0 3 6 3 13 0 7 -2 23 9 35 26 26 35 7 43 -23 10 -10 -11 -21 -17 -26 -14 -12
7 9 55 38 86 39 41 19 47 -22 8 -64 -62 -55 -13 12 61 44 48 24 52 -24 4 -19
-19 -39 -35 -44 -35 -20 0 -6 24 43 76 65 69 55 85 -12 19 -50 -49 -50 -49
-50 -21 0 21 15 42 61 87 34 32 56 59 49 59 -6 0 -38 -25 -71 -57 -78 -74 -76
-49 2 32 42 44 54 62 40 58 -12 -3 -43 -30 -70 -60 -34 -38 -51 -51 -57 -42
-5 8 15 33 59 73 68 62 90 94 40 57 -16 -11 -43 -33 -61 -50 -19 -17 -37 -29
-42 -26 -12 8 -39 92 -46 147 -9 64 17 133 60 159 17 10 24 19 16 19 -9 0 -32
-11 -53 -25 -41 -29 -48 -23 -15 12 12 13 16 23 10 23 -7 0 -12 7 -12 15 0 8
-5 15 -10 15 -6 0 -13 -7 -16 -15 -12 -30 -27 -15 -21 21 5 30 3 35 -10 30
-12 -5 -14 0 -11 29 3 30 1 34 -13 30 -26 -8 -32 11 -13 40 19 29 12 44 -11
25 -12 -10 -19 -10 -27 -2 -9 9 -7 17 9 34 23 26 36 58 24 58 -5 0 -16 -11
-25 -25 -17 -26 -36 -26 -36 1 0 8 9 23 20 34 25 25 27 49 2 27 -38 -35 -43
-8 -11 54 24 49 19 64 -7 20 -10 -17 -22 -31 -26 -31 -20 0 -19 34 1 61 12 16
18 29 13 29 -5 0 -17 -10 -25 -22 l-16 -23 0 24 c-1 13 8 39 20 57 11 19 19
39 17 46 -3 7 -13 -2 -23 -20 -26 -43 -39 -41 -20 5 17 39 13 57 -5 24 -6 -12
-15 -21 -20 -21 -17 0 -11 49 11 93 l20 42 -26 -32 c-50 -62 -62 -27 -19 51
32 56 27 71 -7 21 -29 -42 -36 -43 -50 -9 -11 31 -6 54 27 101 34 50 29 65 -7
23 l-30 -35 25 52 c34 69 33 79 -4 21 -31 -50 -46 -63 -54 -50 -6 9 16 55 49
107 17 25 17 28 2 16 -9 -7 -26 -28 -38 -47 -11 -19 -25 -34 -30 -34 -14 0 -2
39 23 73 25 36 16 48 -11 16 -11 -13 -20 -19 -21 -12 0 28 96 231 149 313 12
18 12 22 2 16 -24 -15 -84 -85 -143 -168 -87 -120 -70 -40 19 95 25 37 43 71
40 73 -8 8 -63 -71 -100 -141 -25 -47 -32 -55 -35 -38 -4 23 11 57 65 145 19
31 33 62 31 68 -2 6 -22 -22 -46 -64 -23 -41 -51 -85 -62 -98 l-19 -23 -1 27
c0 15 15 51 33 80 19 29 37 62 41 72 13 36 -18 -1 -49 -58 -27 -51 -55 -73
-55 -45 0 13 57 130 71 144 5 5 9 16 9 25 -1 20 -20 -5 -62 -77 -56 -98 -62
-48 -7 60 42 82 35 93 -11 20 -36 -57 -60 -78 -60 -54 0 18 25 78 47 114 14
22 22 41 20 44 -6 6 -67 -82 -67 -96 0 -6 -5 -11 -11 -11 -17 0 -1 49 32 99
16 24 27 47 24 49 -8 9 -36 -21 -58 -62 -15 -30 -22 -36 -25 -23 -2 10 6 34
17 53 22 37 26 54 13 54 -5 0 -16 -17 -27 -37 -21 -45 -32 -29 -15 23 14 42 6
58 -11 20 -19 -42 -32 -31 -25 22 6 41 5 45 -7 30 -22 -28 -30 -21 -24 17 5
28 3 35 -9 33 -10 -2 -38 41 -85 132 -74 142 -176 327 -314 570 -45 80 -132
235 -192 345 -180 325 -178 320 -148 393 40 94 119 167 156 144 16 -11 19 -9
19 9 0 20 -166 237 -205 269 -22 17 -15 8 90 -130 64 -83 77 -110 53 -110 -24
0 -88 -54 -117 -99 -16 -25 -40 -72 -52 -104 -12 -32 -26 -54 -30 -50 -11 12
-114 190 -272 468 -49 88 -111 196 -137 240 -26 44 -59 100 -72 125 -14 25
-49 86 -78 135 -29 50 -76 128 -103 175 -113 192 -312 507 -436 690 -80 119
-289 409 -301 420 -3 3 -28 34 -55 70 -27 36 -73 94 -103 129 -30 36 -61 81
-70 100 -9 20 -28 50 -43 66 -15 17 -64 89 -109 160 -213 336 -527 773 -721
1005 -32 37 -55 71 -52 74 12 11 53 6 107 -15z m4501 -4688 c0 -28 -25 -47
-49 -38 -21 8 -21 31 0 52 23 22 49 15 49 -14z m-1682 -79 c27 -26 35 -69 21
-107 -9 -22 -62 -48 -88 -41 -19 5 -23 16 -33 88 -6 46 -9 87 -6 91 10 16 78
-4 106 -31z m2234 -228 c78 -38 114 -64 108 -75 -4 -5 -1 -9 6 -9 31 0 274
-226 346 -322 96 -128 168 -293 199 -456 9 -47 14 -142 14 -260 1 -215 5 -229
64 -218 43 8 79 52 127 156 33 73 34 78 34 205 0 126 -1 132 -33 203 -19 41
-31 76 -28 80 10 10 57 -51 86 -113 34 -71 53 -194 44 -280 -9 -86 -54 -211
-99 -279 -34 -51 -63 -77 -130 -112 -29 -15 -75 -88 -82 -127 -6 -39 16 -67
50 -66 21 0 21 1 2 9 -16 7 -11 9 21 9 34 1 45 -4 58 -24 16 -24 15 -27 -20
-83 -46 -73 -119 -142 -196 -187 -122 -72 -204 -94 -384 -104 -118 -7 -137
-11 -178 -35 -25 -15 -46 -32 -47 -39 0 -7 -5 0 -10 15 -21 55 -110 85 -168
55 -40 -20 -38 -37 4 -37 82 0 95 -34 65 -169 -21 -94 -19 -161 4 -181 10 -7
12 6 12 53 0 45 6 76 23 112 23 48 24 49 31 24 4 -15 26 -50 49 -79 41 -51 42
-54 35 -109 -5 -51 -4 -59 20 -83 31 -35 83 -37 151 -8 56 24 79 26 71 5 -3
-8 -1 -15 4 -15 6 0 10 -4 10 -10 0 -5 -14 -10 -31 -10 -43 0 -79 -29 -138
-109 -58 -80 -78 -90 -124 -64 -26 16 -31 25 -29 49 10 114 1 135 -101 219
-98 81 -113 108 -120 214 -8 128 -42 181 -114 181 -32 0 -33 1 -33 45 0 25 -6
61 -14 80 l-15 35 43 19 c57 25 92 63 129 141 27 57 32 78 35 167 4 93 2 105
-21 150 -14 26 -31 64 -38 83 -7 19 -15 37 -19 40 -19 16 -40 63 -40 89 0 42
24 61 74 61 74 0 95 -40 106 -205 5 -68 15 -133 21 -143 20 -31 65 -53 123
-59 128 -13 196 57 196 203 0 35 4 64 9 64 5 0 20 -15 34 -32 13 -18 37 -46
51 -63 39 -44 56 -87 56 -139 0 -54 -29 -87 -81 -93 -17 -1 -38 -7 -47 -13
-13 -7 -4 -9 34 -10 34 0 56 5 64 15 7 8 16 12 21 9 5 -3 9 2 9 10 0 11 8 13
33 9 61 -10 96 46 97 155 0 35 3 42 19 42 42 0 99 95 112 184 5 34 15 103 22
154 15 100 13 235 -3 240 -6 2 -10 17 -10 32 0 16 -4 31 -9 34 -4 3 -11 24
-15 47 -5 29 -18 52 -45 80 -22 21 -43 48 -46 61 -11 33 -86 136 -134 183 -23
21 -41 45 -41 52 0 17 -145 163 -196 197 -44 29 -191 96 -211 96 -16 0 -20 8
-28 54 l-8 39 51 -5 c28 -3 77 -18 109 -34z m-357 -163 c39 -74 -28 -180 -95
-149 -22 10 -25 18 -25 62 0 41 5 55 27 78 32 33 77 38 93 9z m-115 -557 c20
-8 45 -56 45 -88 0 -87 -94 -136 -157 -82 -24 21 -28 31 -26 70 2 67 33 106
83 106 21 0 46 -3 55 -6z m673 -71 c-5 -25 -28 -28 -28 -4 0 12 6 21 16 21 9
0 14 -7 12 -17z m-1648 -13 c0 -6 -10 -30 -22 -53 -26 -52 -37 -31 -13 24 17
37 35 52 35 29z m-3913 -697 c141 -149 266 -272 348 -346 50 -44 126 -117 170
-162 92 -93 190 -169 324 -250 52 -31 158 -98 235 -150 78 -51 157 -99 177
-108 20 -8 105 -57 190 -110 444 -274 663 -383 1004 -500 72 -25 155 -55 185
-67 109 -43 477 -168 600 -204 69 -21 163 -52 210 -70 136 -53 342 -111 665
-186 387 -90 468 -110 508 -124 23 -8 38 -15 32 -16 -5 0 10 -11 34 -23 45
-22 45 -23 67 -112 24 -96 30 -155 15 -155 -5 0 -45 13 -88 29 -191 72 -575
172 -1248 326 -362 83 -612 150 -804 216 -46 16 -86 28 -88 26 -4 -5 223 -99
333 -138 96 -34 288 -84 359 -94 28 -4 102 -22 165 -40 63 -18 158 -42 210
-53 601 -132 836 -188 896 -216 27 -13 95 -37 151 -54 55 -18 110 -40 121 -49
13 -12 22 -36 26 -70 4 -29 5 -53 3 -53 -3 0 -31 12 -63 26 -258 114 -502 182
-1144 320 -82 18 -85 17 -30 -6 l45 -20 -40 6 c-22 4 -71 12 -108 20 -100 21
-102 16 -7 -17 98 -34 206 -59 257 -59 20 0 71 -9 112 -20 42 -11 180 -45 306
-75 127 -31 283 -74 349 -96 117 -39 283 -113 320 -141 17 -13 60 -127 52
-135 -2 -2 -77 17 -167 42 -90 25 -270 75 -399 111 -129 35 -266 73 -305 84
-499 139 -2030 501 -2189 516 -28 3 -87 18 -131 34 -44 15 -141 49 -215 75
-74 25 -151 52 -170 60 -19 8 -100 39 -180 70 -172 67 -226 92 -342 157 -225
126 -392 288 -483 467 -64 129 -106 283 -159 591 -35 208 -64 346 -88 418 -11
35 -19 65 -17 67 2 2 36 -27 75 -63 148 -138 258 -237 371 -334 65 -55 129
-110 143 -122 76 -66 368 -278 468 -340 74 -46 45 -19 -56 53 -94 67 -283 216
-359 284 -97 86 -214 194 -372 343 -42 39 -96 90 -121 113 -25 24 -75 69 -111
102 l-65 58 -18 98 c-10 54 -20 104 -23 111 -10 25 11 10 64 -45z m6141 -595
c16 -16 15 -88 -2 -110 -17 -23 -46 -33 -200 -69 -72 -18 -148 -40 -169 -51
-22 -11 -41 -17 -44 -15 -2 3 -7 23 -10 44 -5 35 -2 41 29 65 31 24 41 26 95
21 68 -6 84 0 155 60 25 21 64 45 85 52 47 18 47 17 61 3z m29 -90 c-3 -8 -6
-5 -6 6 -1 11 2 17 5 13 3 -3 4 -12 1 -19z m94 -188 c42 -23 62 -106 38 -153
-15 -28 -28 -37 -56 -37 -13 0 -37 -9 -55 -20 -63 -38 -108 -18 -108 51 0 115
99 202 181 159z m-6459 -240 c43 0 53 -101 14 -147 -23 -26 -26 -27 -58 -16
-30 11 -31 11 -13 -3 20 -15 40 -15 80 2 18 7 18 6 6 -9 -21 -26 -87 -23 -105
6 -30 47 -40 93 -27 124 13 32 61 65 76 52 5 -5 17 -9 27 -9z m5998 -9 c0 -10
-7 -24 -15 -31 -12 -10 -16 -9 -21 4 -3 9 -4 23 0 31 8 21 36 19 36 -4z m-783
-1413 c-3 -8 -6 -5 -6 6 -1 11 2 17 5 13 3 -3 4 -12 1 -19z m84 -409 c-5 -13
-10 -19 -10 -12 -1 15 10 45 15 40 3 -2 0 -15 -5 -28z"/>
<path d="M2761 11662 c-14 -4 -26 -13 -29 -21 -3 -10 0 -11 18 -1 16 8 45 10
89 6 41 -4 60 -3 51 3 -22 13 -101 21 -129 13z"/>
<path d="M3295 11643 c65 -9 155 -36 263 -80 62 -25 116 -42 119 -39 4 3 1 6
-4 6 -6 0 -54 20 -106 44 -120 57 -188 76 -251 75 -33 -1 -40 -3 -21 -6z"/>
<path d="M3840 11490 c17 -33 91 -120 102 -120 11 0 -53 89 -88 120 l-27 25
13 -25z"/>
<path d="M3817 11478 c5 -7 54 -71 109 -143 54 -71 118 -156 141 -187 24 -32
45 -58 49 -58 5 0 -3 17 -18 35 -5 6 -36 48 -70 95 -68 96 -208 270 -215 270
-3 0 -1 -6 4 -12z"/>
<path d="M2308 11421 c-18 -16 -30 -32 -26 -36 4 -4 23 9 43 29 43 43 29 48
-17 7z"/>
<path d="M2276 11274 c-9 -23 -7 -36 3 -30 12 8 21 46 11 46 -4 0 -11 -7 -14
-16z"/>
<path d="M4246 10905 c4 -8 11 -15 16 -15 6 0 5 6 -2 15 -7 8 -14 15 -16 15
-2 0 -1 -7 2 -15z"/>
<path d="M2215 10765 c11 -56 64 -150 112 -200 89 -92 153 -146 213 -179 8 -5
-10 13 -40 40 -93 82 -171 167 -168 182 2 8 -14 32 -35 54 -20 21 -49 60 -62
86 -22 39 -25 42 -20 17z"/>
<path d="M4150 8906 c0 -8 112 -58 117 -52 2 2 -20 14 -49 27 -29 13 -56 25
-60 27 -5 2 -8 1 -8 -2z"/>
<path d="M4387 8799 c7 -7 15 -10 18 -7 3 3 -2 9 -12 12 -14 6 -15 5 -6 -5z"/>
<path d="M3605 8700 c11 -12 40 -36 65 -53 25 -17 47 -34 50 -38 9 -13 243
-155 310 -189 84 -41 69 -28 -50 45 -52 33 -156 100 -230 149 -168 113 -170
114 -145 86z"/>
<path d="M5640 8636 c0 -2 7 -7 16 -10 8 -3 12 -2 9 4 -6 10 -25 14 -25 6z"/>
<path d="M2906 8513 c43 -41 57 -52 119 -98 22 -17 64 -49 92 -72 64 -51 95
-69 87 -51 -3 7 -81 68 -172 136 -92 68 -149 106 -126 85z"/>
<path d="M4684 8416 c11 -9 24 -16 30 -16 12 0 7 5 -24 19 -24 11 -24 11 -6
-3z"/>
<path d="M4441 8206 c42 -37 730 -378 758 -375 7 0 -748 379 -756 379 -4 0 -4
-2 -2 -4z"/>
<path d="M3657 7803 c-10 -3 -17 -9 -15 -15 4 -11 8 -11 55 -2 41 8 100 -12
114 -38 39 -73 -39 -221 -126 -240 -14 -3 -9 -7 18 -13 88 -18 157 48 157 151
0 41 -6 59 -29 91 -16 23 -40 48 -53 57 -21 15 -80 20 -121 9z"/>
<path d="M3604 7762 c-27 -22 -54 -74 -54 -102 0 -23 28 -95 34 -89 2 2 1 24
-4 49 -9 51 4 93 39 124 37 34 23 50 -15 18z"/>
<path d="M6123 7685 c-38 -16 -73 -68 -65 -97 5 -21 57 -58 81 -58 8 0 31 8
52 18 29 13 38 24 42 50 6 36 -7 82 -26 94 -18 11 -48 9 -84 -7z m61 -21 c11
-4 16 -19 16 -44 0 -35 -2 -38 -36 -43 -44 -7 -61 -1 -70 26 -5 15 1 27 20 44
28 24 43 27 70 17z"/>
<path d="M3997 7558 c-4 -14 4 -40 23 -74 34 -58 39 -87 14 -77 -11 4 -23 -2
-35 -18 l-18 -24 -46 23 c-108 52 -233 14 -315 -95 -42 -57 -43 -60 -48 -150
-5 -94 12 -172 42 -198 6 -5 19 -22 29 -37 10 -16 26 -28 37 -28 10 0 25 -9
33 -20 8 -11 16 -17 20 -14 9 10 109 -18 139 -38 14 -10 30 -18 35 -18 6 0 18
-9 28 -20 10 -11 24 -20 31 -20 20 0 43 -63 44 -123 2 -81 -9 -123 -41 -156
-24 -25 -34 -29 -59 -25 -19 4 -30 2 -30 -5 0 -15 -77 -14 -83 2 -3 9 -7 9
-20 -2 -14 -11 -20 -11 -32 -1 -8 7 -15 19 -15 26 0 8 -9 14 -19 14 -20 0 -31
18 -31 51 0 10 -7 19 -15 19 -21 0 -45 53 -45 100 0 24 -5 40 -12 40 -6 0 -19
7 -29 16 -10 9 -22 13 -28 10 -17 -11 -23 -108 -14 -253 9 -133 11 -143 34
-162 32 -27 48 -26 59 3 9 26 54 33 79 13 43 -35 201 -57 241 -33 14 8 39 21
55 29 17 8 44 30 61 48 53 57 97 233 76 301 -6 18 -16 53 -23 78 -7 25 -22 56
-33 68 -34 39 -181 132 -208 132 -13 0 -29 5 -36 12 -9 9 -12 9 -12 0 0 -7 -8
-12 -17 -12 -25 0 -113 57 -113 73 0 8 -9 22 -20 32 -25 23 -28 106 -5 125 9
7 14 19 11 27 -3 7 5 20 18 28 13 9 26 25 29 36 4 15 11 18 30 14 14 -4 28 -2
31 4 9 13 60 14 84 2 9 -5 25 -12 35 -15 11 -3 21 -15 24 -26 3 -11 11 -20 18
-20 22 0 44 -35 51 -80 4 -30 17 -56 37 -78 31 -32 31 -33 14 -61 -9 -16 -17
-32 -17 -35 0 -14 50 -4 74 15 25 20 27 26 23 78 -2 31 -10 82 -17 114 l-13
58 41 80 c70 132 56 185 -59 219 -44 14 -69 26 -69 35 0 23 -17 18 -23 -7z"/>
<path d="M6076 7445 c-42 -12 -139 -89 -157 -125 -7 -14 -19 -32 -25 -40 -7
-8 -27 -76 -45 -150 -30 -119 -34 -150 -33 -260 2 -171 37 -346 85 -425 14
-22 30 -52 37 -67 6 -16 17 -28 24 -28 7 0 19 -9 26 -20 7 -12 23 -25 35 -30
51 -20 -61 -9 -148 15 -71 20 -114 25 -202 25 -62 0 -113 2 -113 5 0 2 6 22
14 42 15 39 19 76 37 338 5 82 14 166 18 185 5 19 12 69 16 110 3 41 10 84 15
95 5 11 11 41 15 68 4 32 14 55 31 70 24 22 24 26 13 69 l-12 45 -43 -3 c-28
-2 -46 2 -54 11 -19 23 -32 18 -62 -19 l-27 -34 40 -43 c26 -28 37 -48 33 -58
-4 -9 -8 -53 -10 -98 -2 -45 -8 -93 -14 -108 -5 -14 -10 -39 -10 -54 0 -15 -8
-43 -19 -63 -10 -21 -16 -48 -14 -61 3 -14 0 -35 -7 -47 -9 -17 -9 -29 1 -51
14 -36 3 -52 -18 -24 -10 13 -13 33 -9 60 3 25 0 47 -8 58 -9 12 -12 41 -10
94 4 61 1 80 -12 94 -15 16 -15 23 -3 51 10 24 10 33 1 36 -15 5 -16 38 -2 47
15 10 12 35 -5 35 -14 0 -21 41 -16 95 4 38 -8 60 -43 79 -50 27 -62 18 -69
-55 -4 -34 -12 -68 -18 -75 -7 -9 -7 -25 1 -53 11 -41 5 -106 -11 -127 -7 -9
-15 -94 -20 -221 -1 -13 -7 -23 -15 -23 -20 0 -67 76 -61 99 5 20 -5 106 -23
205 -8 44 -8 67 0 87 9 20 9 33 0 49 -11 20 -10 21 22 18 l33 -3 3 58 c3 52 1
57 -18 57 -11 0 -23 7 -27 16 -4 11 -13 13 -34 9 -16 -4 -49 -7 -74 -7 -47 0
-47 0 -60 -65 -5 -25 -2 -36 15 -53 14 -14 19 -28 15 -41 -5 -15 -2 -22 14
-26 12 -3 21 -10 21 -17 1 -6 7 -63 15 -126 8 -63 17 -155 20 -205 3 -49 8
-97 11 -105 4 -8 8 -40 10 -70 2 -30 6 -71 8 -90 2 -19 7 -78 11 -130 5 -77
11 -102 31 -133 14 -21 22 -42 19 -47 -3 -5 -57 -25 -121 -45 -63 -20 -176
-61 -252 -92 -525 -213 -618 -238 -882 -237 -144 0 -173 3 -224 22 -114 42
-166 23 -166 -60 0 -32 4 -40 26 -48 30 -12 104 -13 104 -2 0 4 12 14 26 23
22 13 33 14 87 2 77 -16 149 -16 352 -1 158 11 161 12 275 61 404 173 682 264
958 313 125 23 178 27 352 28 204 1 384 -16 378 -35 -4 -13 -200 -102 -290
-132 -40 -13 -105 -30 -144 -37 -79 -14 -248 -10 -265 7 -16 16 7 53 31 53 11
0 20 5 20 10 0 15 -67 12 -98 -4 -41 -21 -65 -52 -58 -74 13 -41 -89 -35 -270
14 l-92 25 -74 -33 c-41 -18 -76 -37 -77 -43 -3 -13 132 -59 234 -80 121 -25
243 -34 425 -30 139 2 181 7 265 29 122 32 239 79 410 164 277 138 378 169
529 159 145 -9 251 -56 297 -131 33 -53 23 -69 -42 -71 -115 -3 -169 -58 -169
-173 0 -70 16 -109 56 -141 74 -58 239 9 286 117 25 57 18 100 -26 146 -31 33
-32 38 -28 95 l4 61 -63 63 c-40 38 -90 75 -132 95 -37 18 -67 38 -67 44 0 5
12 24 26 41 19 23 24 37 19 56 -13 53 -58 80 -70 42 -6 -20 -38 -33 -61 -24
-10 4 -12 12 -7 27 4 11 7 35 8 51 0 30 0 30 -63 33 -56 3 -64 6 -74 28 -9 19
-9 33 1 60 17 46 9 53 -23 21 -30 -30 -32 -54 -11 -123 45 -147 -21 -218 -230
-249 -39 -6 -44 -5 -39 9 3 9 11 16 17 16 21 0 87 84 87 110 0 14 11 44 24 67
21 36 23 51 19 103 -5 50 -11 67 -35 91 -37 37 -44 36 -52 -3 -4 -18 -25 -64
-46 -103 -22 -38 -47 -85 -55 -103 -13 -27 -19 -31 -39 -26 -13 3 -27 1 -30
-5 -12 -19 -64 -13 -76 9 -6 11 -17 20 -25 20 -8 0 -20 10 -26 23 -6 12 -22
31 -35 42 -15 12 -28 39 -35 70 -39 184 -46 249 -29 280 9 17 9 28 1 44 -9 16
-9 26 0 42 6 12 9 32 6 45 -2 13 4 36 14 51 11 15 19 42 19 59 0 20 11 46 31
70 39 49 54 58 78 44 27 -14 28 -13 27 12 -1 35 26 32 68 -7 21 -19 42 -35 47
-35 25 0 38 -36 45 -121 6 -81 10 -96 38 -132 37 -48 48 -53 69 -32 27 26 31
80 12 141 -16 50 -16 69 -6 176 10 105 9 124 -4 144 -18 28 -19 28 -83 8 -48
-16 -52 -16 -79 3 -34 25 -90 32 -137 18z m-682 -517 c2 -24 5 -54 5 -68 0
-14 5 -26 11 -28 14 -5 13 -35 -2 -50 -9 -9 -9 -18 0 -37 8 -17 9 -32 3 -43
-13 -25 -7 -142 8 -151 9 -6 9 -15 1 -36 -7 -18 -8 -38 -2 -55 6 -16 6 -33 1
-43 -6 -10 -3 -26 11 -50 l20 -34 -31 -7 c-17 -3 -47 -6 -66 -6 l-35 0 7 39
c3 21 7 74 7 117 0 44 5 90 11 104 5 14 11 45 13 70 9 140 14 240 14 278 -1
23 4 42 9 42 5 0 12 -19 15 -42z m1627 -937 c28 -35 38 -83 28 -137 -11 -56
-39 -90 -89 -105 -137 -41 -206 139 -93 246 25 23 34 26 82 22 41 -3 59 -9 72
-26z"/>
<path d="M4310 7401 c-29 -5 -38 -14 -57 -51 -12 -25 -22 -51 -22 -59 -1 -19
46 -61 68 -61 29 0 33 -44 32 -354 -1 -311 8 -392 52 -468 15 -24 27 -55 27
-67 0 -18 4 -20 25 -15 20 5 25 2 31 -20 7 -28 20 -34 27 -13 3 9 16 6 51 -11
l47 -22 26 20 c28 22 58 26 68 10 11 -17 25 -11 35 15 5 14 16 25 25 25 8 0
18 12 21 28 4 15 20 53 36 85 16 32 26 62 23 67 -3 5 0 20 7 32 9 17 12 109
13 348 0 179 4 331 8 338 5 6 16 12 26 12 19 0 71 49 71 68 0 14 -26 57 -50
84 -13 15 -27 16 -115 8 -55 -5 -101 -13 -103 -19 -2 -6 -12 -11 -22 -11 -10
0 -21 -3 -23 -7 -9 -16 24 -72 59 -101 45 -37 44 -28 44 -406 -1 -296 -3 -317
-42 -344 -10 -7 -18 -21 -18 -31 0 -12 -14 -24 -43 -35 -54 -20 -55 -20 -102
4 -23 12 -51 39 -69 67 l-31 47 -2 181 c-6 472 -3 525 31 525 7 0 21 9 31 20
16 17 17 25 7 59 -14 44 -35 66 -54 55 -12 -8 -50 -7 -88 0 -8 2 -31 0 -50 -3z"/>
<path d="M4171 7254 c0 -11 3 -14 6 -6 3 7 2 16 -1 19 -3 4 -6 -2 -5 -13z"/>
<path d="M4690 7226 c0 -9 5 -16 10 -16 6 0 10 4 10 9 0 6 -4 13 -10 16 -5 3
-10 -1 -10 -9z"/>
<path d="M6270 6940 c0 -5 5 -10 10 -10 6 0 10 5 10 10 0 6 -4 10 -10 10 -5 0
-10 -4 -10 -10z"/>
<path d="M5230 6890 c0 -5 5 -10 10 -10 6 0 10 5 10 10 0 6 -4 10 -10 10 -5 0
-10 -4 -10 -10z"/>
<path d="M6335 6890 c3 -5 8 -10 11 -10 2 0 4 5 4 10 0 6 -5 10 -11 10 -5 0
-7 -4 -4 -10z"/>
<path d="M6235 5985 c-47 -24 -78 -78 -79 -137 -1 -44 3 -53 30 -78 69 -61
172 -42 225 41 23 36 25 46 17 78 -12 44 -43 79 -85 97 -41 18 -70 17 -108 -1z
m89 -35 c27 -10 56 -56 56 -89 0 -66 -64 -104 -125 -75 -39 18 -59 53 -58 99
2 62 59 91 127 65z"/>
<path d="M4805 5804 c-11 -11 -15 -30 -13 -58 3 -37 6 -41 31 -44 54 -6 127
63 105 101 -12 23 -100 24 -123 1z m84 -30 c2 -2 1 -10 -3 -19 -9 -24 -40 -14
-44 14 -3 20 -1 22 20 16 13 -4 25 -9 27 -11z"/>
<path d="M3986 5669 c-71 -84 11 -196 101 -140 37 23 48 55 39 106 -13 69 -94
89 -140 34z m75 -9 c14 -8 19 -21 19 -50 0 -29 -5 -42 -19 -50 -25 -13 -27
-13 -45 6 -21 20 -20 63 1 86 19 21 19 21 44 8z"/>
<path d="M7071 5454 c-13 -16 -21 -41 -21 -64 0 -39 14 -50 67 -50 48 0 79 71
53 121 -16 30 -73 26 -99 -7z m69 -19 c14 -16 4 -55 -14 -55 -7 0 -20 6 -29
13 -16 11 -16 14 -2 35 19 26 28 27 45 7z"/>
<path d="M6524 5305 c-46 -70 45 -245 127 -245 48 0 65 27 73 114 4 42 4 81 0
87 -3 6 -27 24 -52 40 -61 39 -124 40 -148 4z m132 -30 l35 -14 -3 -78 -3 -78
-35 2 c-52 2 -90 49 -90 110 0 68 29 86 96 58z"/>
<path d="M6170 5190 c8 -5 20 -10 25 -10 6 0 3 5 -5 10 -8 5 -19 10 -25 10 -5
0 -3 -5 5 -10z"/>
<path d="M7460 4944 c-34 -40 -5 -104 45 -104 47 0 73 70 39 104 -20 20 -68
21 -84 0z m68 -37 c4 -20 -25 -34 -40 -19 -15 15 -1 44 19 40 10 -2 19 -11 21
-21z"/>
<path d="M5400 4626 c0 -3 9 -10 20 -16 11 -6 20 -8 20 -6 0 3 -9 10 -20 16
-11 6 -20 8 -20 6z"/>
<path d="M5465 4585 c35 -29 347 -181 511 -251 274 -115 542 -210 1024 -364
124 -39 360 -116 525 -170 164 -55 301 -98 303 -96 11 12 -465 184 -888 321
-770 250 -1045 353 -1370 514 -69 34 -116 54 -105 46z"/>
<path d="M7300 3190 c0 -5 5 -10 11 -10 5 0 7 5 4 10 -3 6 -8 10 -11 10 -2 0
-4 -4 -4 -10z"/>
<path d="M4100 11481 c0 -13 65 -97 108 -141 l35 -35 -28 50 c-15 28 -39 65
-52 82 -25 35 -63 61 -63 44z"/>
<path d="M6747 7825 c12 -36 91 -160 117 -184 61 -57 4 50 -76 144 -10 11 -24
29 -33 40 l-15 20 7 -20z"/>
<path d="M7050 7321 c0 -5 5 -13 10 -16 6 -3 10 -2 10 4 0 5 -4 13 -10 16 -5
3 -10 2 -10 -4z"/>
<path d="M7091 7244 c2 -5 18 -42 34 -81 17 -40 33 -73 38 -73 18 0 4 61 -24
103 -28 42 -58 74 -48 51z"/>
<path d="M7230 6947 c0 -14 34 -77 42 -77 17 0 7 38 -17 60 -14 13 -25 21 -25
17z"/>
<path d="M7380 6718 c0 -3 24 -48 54 -100 45 -79 219 -397 269 -493 26 -48 19
-13 -9 51 -44 102 -104 215 -175 331 -77 126 -139 221 -139 211z"/>
<path d="M7705 5908 c-9 -29 -18 -59 -20 -65 -3 -7 0 -13 4 -13 13 0 51 82 51
108 0 39 -18 23 -35 -30z"/>
<path d="M7740 5614 c0 -6 88 -254 115 -324 126 -330 194 -496 195 -476 0 16
-62 223 -102 336 -58 164 -90 244 -149 364 -46 96 -59 118 -59 100z"/>
<path d="M7684 5516 c-24 -26 -46 -66 -36 -66 6 0 20 16 32 36 22 35 24 52 4
30z"/>
<path d="M8173 4696 c-47 -15 -113 -53 -113 -66 0 -21 21 -15 110 31 94 49 96
64 3 35z"/>
<path d="M8092 4560 c-49 -38 -109 -107 -101 -115 3 -2 41 32 85 76 88 86 95
102 16 39z"/>
<path d="M8340 4592 c0 -25 51 -220 90 -342 44 -137 142 -391 148 -385 8 7
-61 264 -108 405 -50 148 -129 345 -130 322z"/>
<path d="M8130 4005 c0 -8 4 -15 9 -15 5 0 14 7 21 15 10 13 9 15 -9 15 -12 0
-21 -6 -21 -15z"/>
<path d="M8161 3957 c-6 -8 -8 -17 -4 -20 7 -8 33 11 33 24 0 13 -16 11 -29
-4z"/>
<path d="M8166 3884 c-4 -11 -1 -14 11 -12 9 2 18 9 21 16 6 18 -25 15 -32 -4z"/>
<path d="M8190 3830 c0 -5 5 -10 10 -10 6 0 10 5 10 10 0 6 -4 10 -10 10 -5 0
-10 -4 -10 -10z"/>
<path d="M8560 3764 c-70 -24 -131 -95 -130 -151 1 -17 1 -17 12 2 18 34 71
85 121 117 26 16 47 34 47 39 0 5 -1 9 -2 9 -2 -1 -23 -8 -48 -16z"/>
<path d="M8240 3730 c0 -5 5 -10 10 -10 6 0 10 5 10 10 0 6 -4 10 -10 10 -5 0
-10 -4 -10 -10z"/>
<path d="M8925 1840 c-3 -5 3 -10 14 -10 12 0 21 5 21 10 0 6 -6 10 -14 10 -8
0 -18 -4 -21 -10z"/>
<path d="M9031 1824 c-13 -7 -44 -11 -68 -9 -55 5 -65 -11 -18 -31 25 -10 35
-20 31 -30 -3 -7 -9 -21 -12 -29 -3 -8 -1 -15 6 -15 8 0 11 -9 8 -25 -3 -14
-1 -28 3 -31 5 -3 9 -15 9 -27 0 -17 2 -19 9 -8 7 11 10 7 13 -15 3 -27 5 -25
33 31 38 76 41 85 17 58 -35 -39 -35 -25 -1 35 26 46 28 53 11 38 -18 -16 -22
-16 -22 -4 0 9 7 18 15 22 18 7 19 17 3 38 -11 13 -17 13 -37 2z m-19 -146
c-7 -7 -12 -8 -12 -2 0 14 12 26 19 19 2 -3 -1 -11 -7 -17z"/>
<path d="M9050 1601 c-12 -23 -13 -41 -2 -41 4 0 13 14 19 30 12 33 0 41 -17
11z"/>
<path d="M9056 1525 c-3 -9 0 -15 9 -15 8 0 15 7 15 15 0 8 -4 15 -9 15 -5 0
-11 -7 -15 -15z"/>
<path d="M9070 6547 c0 -3 12 -12 26 -22 15 -9 23 -12 20 -6 -7 11 -46 35 -46
28z"/>
<path d="M8893 4931 c15 -18 27 -43 27 -55 0 -24 -41 -67 -110 -113 -58 -40
-91 -76 -90 -99 0 -11 1 -29 1 -42 0 -21 3 -22 37 -15 42 9 66 9 247 -2 110
-7 140 -5 190 9 130 38 227 112 304 234 45 71 34 76 -14 6 -52 -75 -115 -129
-200 -169 -101 -49 -191 -61 -331 -45 -106 12 -167 11 -207 -5 -33 -14 -7 23
29 40 29 13 66 16 219 14 l185 -2 64 33 c36 18 75 44 88 58 l23 25 -45 -26
c-70 -40 -151 -57 -275 -57 -60 0 -116 4 -123 8 -9 6 -4 16 18 37 26 25 30 36
30 81 0 58 -24 96 -69 109 l-25 8 27 -32z"/>
<path d="M9614 4808 c57 -48 18 -94 -127 -151 -37 -15 -74 -27 -83 -27 -9 0
-12 -5 -8 -11 10 -17 94 -6 145 19 66 32 129 96 129 131 0 33 -13 47 -55 56
l-30 7 29 -24z"/>
<path d="M3185 3249 c-40 -10 -229 -99 -222 -105 2 -2 43 12 93 30 144 53 150
55 232 49 73 -5 176 -34 242 -68 16 -8 56 -36 87 -62 32 -25 63 -50 70 -55 8
-7 10 -3 6 12 -9 33 -96 114 -161 148 -106 57 -239 76 -347 51z"/>
<path d="M3168 3070 c-210 -53 -368 -199 -368 -342 0 -26 -4 -49 -8 -52 -18
-11 -22 -162 -6 -223 19 -74 34 -90 22 -23 -19 104 1 267 43 356 27 55 178
214 205 214 11 0 25 5 30 10 6 6 37 17 70 26 112 30 300 6 376 -47 31 -23 38
-24 38 -5 0 35 -145 93 -251 100 -55 4 -94 1 -151 -14z"/>
<path d="M3023 2788 c-43 -45 -53 -76 -53 -169 0 -147 43 -216 255 -407 119
-109 225 -230 225 -260 0 -6 4 -13 10 -17 13 -8 -8 48 -38 104 -14 25 -98 120
-187 211 -89 91 -171 179 -182 195 -37 54 -65 154 -58 205 8 51 38 125 62 152
29 32 -2 19 -34 -14z"/>
<path d="M3350 2813 c-58 -9 -72 -15 -109 -48 -91 -82 -115 -246 -50 -329 28
-35 35 -27 14 15 -27 50 -17 170 18 230 15 25 37 55 49 67 29 27 89 52 125 52
22 0 25 2 13 10 -15 10 -17 10 -60 3z"/>
<path d="M2820 2357 c0 -14 61 -129 66 -124 3 3 -11 33 -30 68 -20 35 -36 60
-36 56z"/>
<path d="M2998 2344 c15 -28 83 -89 178 -159 45 -33 92 -75 104 -93 27 -39 45
-113 60 -249 15 -141 34 -199 80 -245 49 -49 70 -49 31 0 -43 54 -60 108 -81
273 -29 228 -39 242 -260 402 -36 26 -78 57 -94 69 -27 20 -28 20 -18 2z"/>
<path d="M10831 1779 c-51 -10 -107 -38 -244 -121 -129 -79 -179 -86 -250 -36
-78 54 -89 58 -153 58 -44 0 -68 -5 -85 -18 -13 -10 -46 -31 -74 -47 -27 -16
-82 -61 -122 -100 -50 -50 -84 -75 -115 -85 -55 -18 -60 -18 -80 -8 -16 8 -16
11 4 49 43 83 -6 179 -104 203 -28 6 -28 6 -28 -47 0 -108 -54 -197 -162 -269
-98 -65 -208 -127 -246 -139 -20 -6 -48 -16 -62 -22 -14 -6 -54 -11 -90 -12
-39 -1 -81 -9 -105 -20 -22 -11 -51 -22 -65 -26 -20 -5 -21 -7 -5 -8 11 0 47
6 80 15 33 8 104 21 158 29 61 9 111 22 131 35 18 11 39 20 45 20 7 0 17 5 24
10 54 45 95 70 156 94 51 20 71 32 67 42 -3 8 5 24 18 38 36 36 63 95 70 157
l7 57 47 -14 c67 -20 76 -36 46 -87 -26 -46 -31 -99 -11 -114 48 -39 150 -6
222 71 68 72 145 125 222 153 91 33 117 31 142 -11 13 -21 37 -40 61 -50 70
-28 101 -22 215 41 82 46 238 105 313 120 109 21 213 9 308 -38 78 -39 102
-73 111 -160 5 -56 11 -68 41 -97 36 -34 92 -68 92 -55 0 5 -13 17 -28 27 -16
10 -39 34 -51 52 -19 28 -22 40 -16 87 10 78 -6 102 -105 157 -53 30 -97 44
-202 65 -85 16 -111 17 -177 4z"/>
<path d="M10857 1666 c-21 -8 -40 -16 -42 -18 -2 -1 33 -3 78 -3 71 0 90 -4
141 -30 32 -16 70 -45 85 -64 25 -33 26 -41 29 -178 3 -139 4 -144 28 -159 18
-12 34 -14 61 -8 l38 7 -39 7 c-67 12 -76 44 -55 182 8 52 8 82 0 108 -13 44
-78 113 -132 141 -52 26 -143 33 -192 15z"/>
<path d="M3185 1581 c-79 -19 -145 -97 -145 -171 0 -46 29 -148 49 -172 6 -7
22 -28 37 -46 36 -45 165 -102 231 -102 44 0 93 20 93 37 0 11 -5 13 -17 8
-38 -16 -133 -18 -151 -3 -9 8 -31 20 -49 27 -48 19 -109 80 -131 132 -28 66
-23 162 12 218 30 47 53 55 136 49 66 -5 73 -10 116 -91 14 -27 27 -47 30 -45
9 10 -27 106 -48 125 -42 37 -99 49 -163 34z"/>
<path d="M10260 1543 c1 -5 7 -19 15 -33 21 -37 18 -78 -10 -137 -29 -63 -16
-70 22 -12 37 56 43 135 13 167 -20 22 -40 29 -40 15z"/>
<path d="M10731 1433 c8 -10 29 -31 47 -47 40 -36 82 -104 82 -135 0 -14 4
-20 11 -15 17 10 5 78 -22 120 -12 20 -43 49 -68 65 -51 33 -70 37 -50 12z"/>
<path d="M10964 1403 c3 -10 15 -49 27 -88 22 -72 70 -135 104 -135 15 0 13 5
-9 27 -15 15 -35 55 -47 94 -21 68 -51 119 -70 119 -6 0 -8 -8 -5 -17z"/>
<path d="M10418 1352 c-20 -2 -28 -9 -28 -23 0 -16 3 -18 19 -9 49 26 101 9
166 -51 28 -27 33 -28 62 -17 19 7 34 21 38 35 13 53 105 3 120 -65 7 -35 -13
-91 -47 -126 -30 -31 -88 -66 -110 -66 -10 0 -18 -4 -18 -9 0 -13 26 -21 68
-21 50 0 104 -29 121 -64 32 -68 12 -157 -60 -263 -44 -64 -81 -84 -215 -118
-118 -29 -127 -30 -256 -23 -161 9 -253 28 -303 62 -21 14 -43 26 -49 26 -7 0
-12 17 -11 42 0 38 2 42 32 50 24 6 39 4 56 -6 37 -25 156 -49 186 -37 14 5
59 12 100 15 86 7 130 25 66 27 -70 2 -118 -1 -185 -12 -61 -11 -69 -10 -127
15 -95 40 -173 31 -173 -20 0 -28 29 -84 44 -84 8 0 24 -13 35 -29 11 -16 33
-31 48 -34 16 -3 53 -13 83 -23 41 -12 92 -17 195 -17 136 -1 163 3 320 44
127 34 251 175 263 299 5 60 -24 119 -78 159 l-39 28 26 24 c89 83 56 258 -55
289 -33 9 -39 8 -54 -11 -10 -12 -18 -30 -18 -40 0 -33 -29 -34 -63 -2 -50 48
-97 64 -159 55z"/>
<path d="M11483 1330 c44 -64 73 -174 61 -237 -13 -69 -74 -94 -119 -48 -24
23 -29 41 -26 95 1 22 0 23 -10 7 -24 -40 -29 -79 -14 -114 14 -32 13 -36 -8
-65 -33 -44 -28 -98 16 -192 63 -135 48 -210 -65 -318 -80 -77 -167 -119 -248
-121 -56 -2 -64 1 -86 26 -13 16 -24 40 -24 54 0 34 40 120 61 130 48 23 148
118 161 152 3 10 0 31 -8 47 -31 64 -128 87 -160 38 -22 -33 -9 -78 24 -82 12
-2 22 1 22 7 0 6 -7 11 -15 11 -23 0 -18 37 7 54 51 36 105 5 89 -52 -14 -48
-48 -90 -90 -112 -21 -10 -52 -35 -69 -55 -31 -35 -32 -35 -32 -10 0 40 -15
29 -29 -22 -9 -36 -26 -61 -67 -101 -57 -55 -62 -62 -41 -62 15 1 42 24 85 73
l32 38 0 -64 0 -63 -64 -42 c-74 -49 -157 -82 -271 -108 -114 -27 -448 -27
-550 -1 -142 37 -232 81 -302 145 -56 51 -103 141 -103 195 0 31 -3 38 -11 30
-22 -22 30 -170 80 -227 40 -47 134 -105 222 -136 52 -18 100 -38 107 -43 15
-12 513 -10 602 3 111 16 198 50 239 94 28 29 63 42 143 50 132 14 244 60 314
130 55 53 104 144 110 204 5 40 0 57 -30 117 -38 73 -45 121 -25 172 18 48 37
63 67 52 20 -8 31 -6 51 9 42 30 61 79 61 155 0 80 -22 137 -71 182 -29 26
-31 27 -16 5z"/>
<path d="M9485 1296 c-16 -8 -44 -29 -61 -47 -37 -40 -85 -111 -79 -117 2 -2
31 26 65 62 69 73 120 109 143 100 8 -3 18 -1 22 5 9 16 -53 13 -90 -3z"/>
<path d="M5480 1267 c-59 -30 -63 -107 -11 -211 33 -67 79 -111 127 -121 l29
-6 -25 18 c-120 84 -176 225 -114 287 15 14 33 26 40 26 8 0 14 5 14 10 0 14
-30 12 -60 -3z"/>
<path d="M5611 1246 c-13 -7 -30 -24 -37 -37 -16 -29 -17 -103 -1 -146 45
-121 258 -252 438 -268 148 -14 305 29 599 162 91 41 179 80 195 88 54 24 168
55 240 65 l70 9 -91 -4 c-127 -6 -247 -42 -550 -164 -249 -100 -308 -115 -454
-115 -118 -1 -128 1 -185 29 -73 35 -187 145 -215 207 -11 23 -20 64 -20 90 0
59 20 73 92 65 57 -7 61 -1 13 19 -42 17 -63 17 -94 0z"/>
<path d="M3924 1216 c8 -44 1 -62 -34 -76 -33 -14 -90 -1 -146 32 -41 24 -52
20 -25 -9 75 -80 212 -87 236 -13 3 11 10 20 15 20 13 0 33 -76 35 -130 2 -52
38 -117 84 -149 16 -12 56 -34 88 -49 51 -23 70 -26 163 -27 94 0 110 3 155
27 52 27 131 95 122 104 -3 3 -24 -6 -46 -20 -73 -46 -142 -68 -241 -76 -105
-8 -134 0 -196 57 -53 48 -106 163 -129 280 -4 19 -14 35 -26 38 -10 4 -19 11
-19 16 0 5 -10 9 -21 9 -19 0 -20 -4 -15 -34z"/>
<path d="M8513 1137 c4 -10 7 -22 7 -26 0 -20 73 -83 111 -96 70 -25 229 -14
229 15 0 13 -28 20 -33 7 -6 -18 -156 -13 -193 6 -16 8 -51 37 -78 64 -27 26
-47 40 -43 30z"/>
<path d="M5090 1105 c-54 -17 -272 -145 -247 -145 9 0 58 18 109 41 210 93
240 99 348 74 18 -4 15 0 -12 15 -49 27 -140 34 -198 15z"/>
<path d="M5930 1090 c0 -5 5 -10 10 -10 6 0 10 5 10 10 0 6 -4 10 -10 10 -5 0
-10 -4 -10 -10z"/>
<path d="M7610 1056 c5 -8 38 -24 73 -37 76 -28 204 -30 317 -5 41 10 115 20
165 23 57 4 82 9 70 14 -34 13 -186 10 -275 -6 -123 -23 -244 -21 -309 4 -33
12 -48 15 -41 7z"/>
<path d="M10427 933 c-3 -5 -8 -23 -12 -41 -9 -41 -55 -73 -149 -101 -107 -33
-179 -24 -239 28 -46 40 -70 51 -114 51 -80 0 -185 -56 -240 -127 -32 -41 -56
-100 -47 -115 3 -5 1 -15 -6 -23 -6 -7 -7 -16 -2 -19 10 -6 32 35 32 59 0 7 4
15 8 17 4 2 23 25 42 51 19 26 49 57 67 68 18 11 33 24 33 28 0 5 27 14 60 21
77 16 128 3 164 -42 22 -28 31 -32 86 -36 64 -5 180 18 235 45 39 20 85 63 85
81 0 7 8 12 18 10 12 -2 18 -15 20 -45 4 -51 -9 -78 -51 -103 -25 -15 -28 -20
-15 -25 63 -24 127 119 82 183 -18 25 -51 45 -57 35z"/>
<path d="M9781 686 c-17 -18 -22 -32 -17 -50 6 -26 29 -38 24 -13 -1 6 6 26
15 44 27 51 16 60 -22 19z"/>
<path d="M9746 602 c-4 -13 -5 -26 -2 -29 10 -11 18 4 14 29 l-4 23 -8 -23z"/>
<path d="M9745 543 c4 -10 11 -32 15 -48 8 -34 31 -75 42 -75 4 0 21 -13 38
-30 17 -16 36 -30 42 -30 6 0 19 -7 28 -15 9 -8 46 -27 81 -41 57 -22 82 -26
234 -30 136 -5 179 -3 215 10 l45 15 -40 -7 c-22 -4 -92 -7 -155 -6 -123 1
-243 25 -316 63 -22 11 -50 26 -64 33 -14 7 -27 16 -30 19 -3 4 -14 8 -24 10
-13 3 -28 25 -45 66 -14 35 -32 63 -38 63 -7 0 -13 5 -13 10 0 6 -5 10 -11 10
-7 0 -8 -7 -4 -17z"/>
</g>
</svg>
